<mxfile host="" modified="2020-07-09T02:48:48.393Z" agent="5.0 (Macintosh; Intel Mac OS X 10_14_6) AppleWebKit/537.36 (KHTML, like Gecko) Code/1.46.1 Chrome/78.0.3904.130 Electron/7.3.1 Safari/537.36" etag="KN80QnjdW7BAp4Ddwu_g" version="13.1.3" pages="2">
    <diagram id="6hGFLwfOUW9BJ-s0fimq" name="Page-1">
        <mxGraphModel dx="712" dy="622" grid="0" gridSize="10" guides="1" tooltips="1" connect="1" arrows="1" fold="1" page="1" pageScale="1" pageWidth="827" pageHeight="1169" math="0" shadow="0">
            <root>
                <mxCell id="0"/>
                <mxCell id="1" parent="0"/>
                <mxCell id="4" value="" style="edgeStyle=orthogonalEdgeStyle;rounded=0;orthogonalLoop=1;jettySize=auto;html=1;" edge="1" parent="1" target="3">
                    <mxGeometry relative="1" as="geometry">
                        <mxPoint x="370" y="100" as="sourcePoint"/>
                        <Array as="points">
                            <mxPoint x="360" y="100"/>
                            <mxPoint x="360" y="150"/>
                            <mxPoint x="260" y="150"/>
                        </Array>
                    </mxGeometry>
                </mxCell>
                <mxCell id="12" value="" style="edgeStyle=orthogonalEdgeStyle;rounded=0;orthogonalLoop=1;jettySize=auto;html=1;" edge="1" parent="1" source="3" target="11">
                    <mxGeometry relative="1" as="geometry"/>
                </mxCell>
                <mxCell id="3" value="HTML" style="rounded=1;whiteSpace=wrap;html=1;" vertex="1" parent="1">
                    <mxGeometry x="200" y="190" width="120" height="60" as="geometry"/>
                </mxCell>
                <mxCell id="15" value="" style="edgeStyle=orthogonalEdgeStyle;rounded=0;orthogonalLoop=1;jettySize=auto;html=1;" edge="1" parent="1" source="11">
                    <mxGeometry relative="1" as="geometry">
                        <mxPoint x="360" y="490" as="targetPoint"/>
                    </mxGeometry>
                </mxCell>
                <mxCell id="11" value="Web a + b" style="rounded=1;whiteSpace=wrap;html=1;" vertex="1" parent="1">
                    <mxGeometry x="300" y="350" width="120" height="60" as="geometry"/>
                </mxCell>
                <mxCell id="13" style="edgeStyle=orthogonalEdgeStyle;rounded=0;orthogonalLoop=1;jettySize=auto;html=1;entryX=0.5;entryY=0;entryDx=0;entryDy=0;" edge="1" parent="1" source="6" target="11">
                    <mxGeometry relative="1" as="geometry"/>
                </mxCell>
                <mxCell id="6" value="Node.js&lt;br&gt;a ＋ ｂ" style="rounded=1;whiteSpace=wrap;html=1;" vertex="1" parent="1">
                    <mxGeometry x="400" y="190" width="120" height="60" as="geometry"/>
                </mxCell>
                <mxCell id="9" style="edgeStyle=orthogonalEdgeStyle;rounded=0;orthogonalLoop=1;jettySize=auto;html=1;" edge="1" parent="1" target="6">
                    <mxGeometry relative="1" as="geometry">
                        <mxPoint x="370" y="100" as="sourcePoint"/>
                        <Array as="points">
                            <mxPoint x="360" y="100"/>
                            <mxPoint x="360" y="150"/>
                            <mxPoint x="460" y="150"/>
                        </Array>
                    </mxGeometry>
                </mxCell>
                <mxCell id="5" value="start" style="ellipse;whiteSpace=wrap;html=1;" vertex="1" parent="1">
                    <mxGeometry x="300" y="20" width="120" height="80" as="geometry"/>
                </mxCell>
                <mxCell id="16" value="End" style="ellipse;whiteSpace=wrap;html=1;" vertex="1" parent="1">
                    <mxGeometry x="300" y="490" width="120" height="80" as="geometry"/>
                </mxCell>
                <mxCell id="21" value="1. 应用说明&lt;br&gt;&lt;br&gt;2. Case Demo" style="shape=note;whiteSpace=wrap;html=1;backgroundOutline=1;darkOpacity=0.05;" vertex="1" parent="1">
                    <mxGeometry x="20" y="160" width="120" height="100" as="geometry"/>
                </mxCell>
                <mxCell id="23" value="1. 应用说明&lt;br&gt;&lt;br&gt;2. Case Demo" style="shape=note;whiteSpace=wrap;html=1;backgroundOutline=1;darkOpacity=0.05;" vertex="1" parent="1">
                    <mxGeometry x="590" y="170" width="120" height="100" as="geometry"/>
                </mxCell>
                <mxCell id="26" value="1. &amp;nbsp;Case Demo&lt;br&gt;&lt;br&gt;2. Demo说明&lt;br&gt;&lt;br&gt;3. 效果展示" style="shape=note;whiteSpace=wrap;html=1;backgroundOutline=1;darkOpacity=0.05;" vertex="1" parent="1">
                    <mxGeometry x="490" y="330" width="120" height="100" as="geometry"/>
                </mxCell>
                <mxCell id="_QQeWZ5T9rn4reh_0_un-26" value="" style="endArrow=none;dashed=1;html=1;entryX=0;entryY=0.5;entryDx=0;entryDy=0;" edge="1" parent="1" target="3">
                    <mxGeometry width="50" height="50" relative="1" as="geometry">
                        <mxPoint x="150" y="220" as="sourcePoint"/>
                        <mxPoint x="210.71067811865476" y="210" as="targetPoint"/>
                    </mxGeometry>
                </mxCell>
                <mxCell id="_QQeWZ5T9rn4reh_0_un-28" value="" style="endArrow=none;dashed=1;html=1;entryX=0;entryY=0.5;entryDx=0;entryDy=0;entryPerimeter=0;" edge="1" parent="1" source="6" target="23">
                    <mxGeometry width="50" height="50" relative="1" as="geometry">
                        <mxPoint x="520" y="270" as="sourcePoint"/>
                        <mxPoint x="590.7106781186548" y="220" as="targetPoint"/>
                    </mxGeometry>
                </mxCell>
                <mxCell id="_QQeWZ5T9rn4reh_0_un-29" value="" style="endArrow=none;dashed=1;html=1;" edge="1" parent="1" source="11">
                    <mxGeometry width="50" height="50" relative="1" as="geometry">
                        <mxPoint x="420" y="430" as="sourcePoint"/>
                        <mxPoint x="490.71067811865476" y="380" as="targetPoint"/>
                    </mxGeometry>
                </mxCell>
                <mxCell id="_QQeWZ5T9rn4reh_0_un-33" value="1. 道长选择&lt;br&gt;&lt;br&gt;2. 分配钉钉群&lt;br&gt;&lt;br&gt;3. 创建git repo" style="shape=note;whiteSpace=wrap;html=1;backgroundOutline=1;darkOpacity=0.05;" vertex="1" parent="1">
                    <mxGeometry x="500" y="10" width="120" height="100" as="geometry"/>
                </mxCell>
                <mxCell id="_QQeWZ5T9rn4reh_0_un-35" value="" style="endArrow=none;dashed=1;html=1;exitX=1;exitY=0.5;exitDx=0;exitDy=0;entryX=0;entryY=0.5;entryDx=0;entryDy=0;entryPerimeter=0;" edge="1" parent="1" source="5" target="_QQeWZ5T9rn4reh_0_un-33">
                    <mxGeometry width="50" height="50" relative="1" as="geometry">
                        <mxPoint x="420" y="110" as="sourcePoint"/>
                        <mxPoint x="470" y="60" as="targetPoint"/>
                    </mxGeometry>
                </mxCell>
                <mxCell id="_QQeWZ5T9rn4reh_0_un-36" value="&lt;br&gt;条件：code review 通过" style="shape=note;whiteSpace=wrap;html=1;backgroundOutline=1;darkOpacity=0.05;" vertex="1" parent="1">
                    <mxGeometry x="490" y="488" width="120" height="96" as="geometry"/>
                </mxCell>
                <mxCell id="_QQeWZ5T9rn4reh_0_un-37" value="" style="endArrow=none;dashed=1;html=1;" edge="1" parent="1" source="16">
                    <mxGeometry width="50" height="50" relative="1" as="geometry">
                        <mxPoint x="420" y="580" as="sourcePoint"/>
                        <mxPoint x="490.71067811865476" y="530" as="targetPoint"/>
                    </mxGeometry>
                </mxCell>
                <mxCell id="_QQeWZ5T9rn4reh_0_un-38" value="1. 释放资源（关闭钉钉群）&lt;br&gt;&lt;br&gt;2. 升级身份（本case的道长身份）&lt;br&gt;&lt;br&gt;3. 升级case（或另外开启新case）" style="shape=note;whiteSpace=wrap;html=1;backgroundOutline=1;darkOpacity=0.05;" vertex="1" parent="1">
                    <mxGeometry x="22" y="469" width="204" height="115" as="geometry"/>
                </mxCell>
                <mxCell id="_QQeWZ5T9rn4reh_0_un-39" value="" style="endArrow=none;dashed=1;html=1;" edge="1" parent="1" source="_QQeWZ5T9rn4reh_0_un-38">
                    <mxGeometry width="50" height="50" relative="1" as="geometry">
                        <mxPoint x="230" y="576" as="sourcePoint"/>
                        <mxPoint x="300.71067811865476" y="526" as="targetPoint"/>
                    </mxGeometry>
                </mxCell>
            </root>
        </mxGraphModel>
    </diagram>
    <diagram id="5-RzGcya1e1T5-sKqqNq" name="Page-2">
        <mxGraphModel dx="605" dy="529" grid="1" gridSize="10" guides="1" tooltips="1" connect="1" arrows="1" fold="1" page="1" pageScale="1" pageWidth="850" pageHeight="1100" math="0" shadow="0">
            <root>
                <mxCell id="hku_Y8odc3_6AkUXwz6b-0"/>
                <mxCell id="hku_Y8odc3_6AkUXwz6b-1" parent="hku_Y8odc3_6AkUXwz6b-0"/>
            </root>
        </mxGraphModel>
    </diagram>
</mxfile>
